# xmcd
#
# Track frame offsets:
#	180
#	9697
#	21084
#	34857
#	48202
#	62821
#	75865
#	87102
#	97716
#	118049
#	127930
#	138577
#
# Disc length: 2060 seconds
#
# Revision: 1
# Processed by: cddbd v1.5.2PL0 Copyright (c) Steve Scherf et al.
# Submitted via: audiograbber 1.83.01
#
DISCID=88080a0c
DTITLE=Hill Topper Music Group - Hill Topper Music Group 01
DYEAR=2001
DGENRE=Country
TTITLE0=Hey Mr Dj - Ernie Ashworth
TTITLE1=My Heartache Could Be Healed By You - Lenaye Pearson
TTITLE2=Cash On The Barrelhead - Charlie Luvin
TTITLE3=Here Comes Truble - Pamela Ashby
TTITLE4=Rangeland - Stu Phillips
TTITLE5=Packing Heat Down In Texas - Jim Bundy
TTITLE6=Back In Memphis - Clint Miller
TTITLE7=Move It On Over - Dee Meese
TTITLE8=Misty Green Eyes In The Rain - Dee Meese
TTITLE9=I´m The Only One Who´ll Miss Me - Dick Shuey
TTITLE10=Thanks A Lot - Ernest Tubb
TTITLE11=Chrildren Of The Street - Robert Shields
EXTD=
EXTT0=
EXTT1=
EXTT2=
EXTT3=
EXTT4=
EXTT5=
EXTT6=
EXTT7=
EXTT8=
EXTT9=
EXTT10=
EXTT11=
PLAYORDER=
